<svg width="17" height="16" viewBox="0 0 17 16" fill="none" xmlns="http://www.w3.org/2000/svg">
<path d="M13.6661 8.25378C13.7162 8.13175 13.7292 7.99766 13.7035 7.86829C13.6777 7.73892 13.6144 7.62002 13.5214 7.52644L10.8548 4.85978C10.7933 4.7961 10.7197 4.74531 10.6384 4.71037C10.557 4.67544 10.4696 4.65704 10.381 4.65628C10.2925 4.65551 10.2047 4.67237 10.1228 4.70589C10.0409 4.73941 9.96645 4.78892 9.90385 4.85151C9.84126 4.91411 9.79175 4.98854 9.75823 5.07047C9.72471 5.1524 9.70785 5.24019 9.70861 5.32871C9.70938 5.41723 9.72777 5.50471 9.76271 5.58605C9.79765 5.66738 9.84844 5.74094 9.91211 5.80244L11.4414 7.33244H3.71745C3.54064 7.33244 3.37107 7.40268 3.24604 7.5277C3.12102 7.65273 3.05078 7.8223 3.05078 7.99911C3.05078 8.17592 3.12102 8.34549 3.24604 8.47051C3.37107 8.59554 3.54064 8.66578 3.71745 8.66578H11.4414L9.91278 10.1944C9.84911 10.2559 9.79832 10.3295 9.76338 10.4108C9.72844 10.4922 9.71005 10.5797 9.70928 10.6682C9.70851 10.7567 9.72538 10.8445 9.7589 10.9264C9.79242 11.0083 9.84192 11.0828 9.90452 11.1454C9.96711 11.208 10.0415 11.2575 10.1235 11.291C10.2054 11.3245 10.2932 11.3414 10.3817 11.3406C10.4702 11.3398 10.5577 11.3214 10.6391 11.2865C10.7204 11.2516 10.794 11.2008 10.8554 11.1371L13.5221 8.47044C13.584 8.40849 13.633 8.33484 13.6661 8.25378Z" fill="url(#paint0_linear)"/>
<defs>
<linearGradient id="paint0_linear" x1="13.6198" y1="11.2931" x2="2.65702" y2="10.0313" gradientUnits="userSpaceOnUse">
<stop stop-color="#197ACF"/>
<stop offset="1" stop-color="#1A8DE9"/>
</linearGradient>
</defs>
</svg>
